<?xml version="1.0" encoding="UTF-8" standalone="no" ?>
<!DOCTYPE svg PUBLIC "-//W3C//DTD SVG 1.1//EN" "http://www.w3.org/Graphics/SVG/1.1/DTD/svg11.dtd">
<svg xmlns="http://www.w3.org/2000/svg" xmlns:xlink="http://www.w3.org/1999/xlink" version="1.1" width="1080" height="1080" viewBox="0 0 1080 1080" xml:space="preserve">
<desc>Created with Fabric.js 5.2.4</desc>
<defs>
</defs>
<g transform="matrix(1 0 0 1 540 540)" id="4dc9be45-c52c-4205-9eff-80e3ed8397d0"  >
<rect style="stroke: none; stroke-width: 1; stroke-dasharray: none; stroke-linecap: butt; stroke-dashoffset: 0; stroke-linejoin: miter; stroke-miterlimit: 4; fill: rgb(255,255,255); fill-rule: nonzero; opacity: 1; visibility: hidden;" vector-effect="non-scaling-stroke"  x="-540" y="-540" rx="0" ry="0" width="1080" height="1080" />
</g>
<g transform="matrix(1 0 0 1 540 540)" id="5087d802-0c93-4707-ab3f-5af2bdec77d8"  >
</g>
<g transform="matrix(0.55 0 0 0.55 529.86 529.59)"  >
<path style="stroke: none; stroke-width: 1; stroke-dasharray: none; stroke-linecap: butt; stroke-dashoffset: 0; stroke-linejoin: miter; stroke-miterlimit: 4; fill: rgb(247,195,63); fill-rule: nonzero; opacity: 1;" vector-effect="non-scaling-stroke"  transform=" translate(-31.48, -24.96)" d="M 60.369 31.692 C 58.727 33.333 56.514 34.277 54.287 34.277 C 52.327999999999996 34.277 50.513 33.548 49.179 32.226 L 29.016 12.051 L 27.189999999999998 13.876 L 34.155 20.84 L 11.58 43.415 C 10.914 44.082 10.38 44.852 9.98 45.702 C 9.355 47.025 9.098 48.482 9.221 49.929 C 3.261 43.908 -0.01 36.266 0 28.4 C 0.01 20.881999999999998 3.005 13.764 8.432 8.369 C 13.856 2.975 21.056 0 28.708 0 C 33.230999999999995 0 37.539 1.016 41.519 3.005 C 43.138999999999996 3.8049999999999997 44.717999999999996 4.79 46.205999999999996 5.948 L 46.913999999999994 6.502000000000001 L 60.913 20.492 C 63.836 23.436 63.6 28.46 60.369 31.692 z" stroke-linecap="round" />
</g>
<g transform="matrix(0.55 0 0 0.55 527.96 537.21)"  >
<path style="stroke: none; stroke-width: 1; stroke-dasharray: none; stroke-linecap: butt; stroke-dashoffset: 0; stroke-linejoin: miter; stroke-miterlimit: 4; fill: rgb(247,195,63); fill-rule: nonzero; opacity: 1;" vector-effect="non-scaling-stroke"  transform=" translate(-28.11, -39.01)" d="M 44.461 31.148 L 21.888 53.723 C 20.832 54.769 19.405 55.354 17.899 55.354 C 16.288 55.354 14.75 54.708 13.581000000000001 53.539 C 12.412 52.371 11.767000000000001 50.843 11.767000000000001 49.221000000000004 C 11.767000000000001 47.704 12.339 46.288000000000004 13.397000000000002 45.232000000000006 L 35.97 22.657 L 44.461 31.148 z" stroke-linecap="round" />
</g>
<g transform="matrix(0.55 0 0 0.55 546.13 540)"  >
<path style="stroke: none; stroke-width: 1; stroke-dasharray: none; stroke-linecap: butt; stroke-dashoffset: 0; stroke-linejoin: miter; stroke-miterlimit: 4; fill: rgb(247,195,63); fill-rule: nonzero; opacity: 1;" vector-effect="non-scaling-stroke"  transform=" translate(-61.24, -43.9)" d="M 100 28.4 C 100.009 36.318 96.697 44 90.666 50.041 C 87.077 53.62 82.943 57.754 78.717 61.98 L 54.328 86.164 C 53.272000000000006 87.22 51.856 87.795 50.338 87.795 C 48.717 87.795 47.179 87.149 46.02 85.979 C 44.882000000000005 84.84 44.246 83.344 44.215 81.764 C 44.184000000000005 80.216 44.758 78.759 45.836000000000006 77.67099999999999 L 69.547 53.94899999999999 L 67.334 51.73299999999999 L 43.621 75.458 C 42.564 76.504 41.139 77.087 39.631 77.087 C 38.021 77.087 36.483 76.441 35.312 75.274 C 34.144 74.104 33.498 72.57600000000001 33.498 70.956 C 33.498 69.437 34.071999999999996 68.021 35.128 66.965 L 58.84 43.241 L 56.319 40.719 L 32.594 64.431 C 31.538 65.488 30.122 66.062 28.605 66.062 C 26.985 66.062 25.445 65.416 24.286 64.249 C 23.148000000000003 63.108999999999995 22.512 61.611999999999995 22.481 60.032999999999994 C 22.439 58.48499999999999 23.024 57.026999999999994 24.101000000000003 55.93899999999999 L 46.675000000000004 33.36599999999999 L 47.362 34.05299999999999 C 49.188 35.86899999999999 51.649 36.86399999999999 54.285000000000004 36.86399999999999 C 57.168000000000006 36.86399999999999 60.051 35.64299999999999 62.194 33.52099999999999 C 66.42 29.273999999999987 66.665 22.617999999999988 62.727000000000004 18.679999999999986 L 51.733 7.683 C 57.065 2.7199999999999998 63.977 0.0009999999999994458 71.292 0.0009999999999994458 C 78.932 0.0009999999999994458 86.133 2.9759999999999995 91.568 8.370999999999999 C 96.995 13.764 99.991 20.882 100 28.4 z" stroke-linecap="round" />
</g>
</svg>